# xmcd CD database file
#
# Track frame offsets:
#	150
#	10751
#	23262
#	36420
#	49300
#	62031
#	74632
#	88124
#	101725
#	114248
#	126043
#	138968
#	152436
#	161172
#	174197
#	186260
#	194853
#	205096
#	218849
#	230519
#	244091
#	256099
#	267555
#	279940
#	291602
#	300081
#
# Disc length: 4156 seconds
#
# Revision: 2
# Processed by: cddbd v1.4PL0 Copyright (c) Steve Scherf et al.
# Submitted via: CDex 1.40Beta4
#
DISCID=76103a1a
DTITLE=Cowboy Copas - Copusetic
DYEAR=1944
DGENRE=Country
TTITLE0=Alabam
TTITLE1=Filipino Baby
TTITLE2=I Don´t Blame You
TTITLE3=There Ain´t Nobody Gonna Miss Me
TTITLE4=Tragic Romance
TTITLE5=Sweet Thing
TTITLE6=Sundown And Sorrow
TTITLE7=Juke Box Blues
TTITLE8=No More Roamin´
TTITLE9=Signed, Sealed And Delivered
TTITLE10=Don´t Let Them Change Your Mind
TTITLE11=It´s A Lonely World
TTITLE12=( My Heart´s ) Below The Mason-Dixon Line
TTITLE13=Breeze
TTITLE14=Night Plane To Memphis
TTITLE15=Doubletrouble On My Mind
TTITLE16=If I Bring Home The Bacon
TTITLE17=Tennessee Waltz
TTITLE18=Hangman´s Boogie
TTITLE19=Don´t Let Your Deal Go Down
TTITLE20=Tennessee Flat Guitar
TTITLE21=I Can´t Stop Loving You
TTITLE22=Feelin´Low
TTITLE23=Look What I Got
TTITLE24=Lock Me In Your Heart
TTITLE25=Hangman´s Boogie (alternate take)
EXTD=YEAR: 1944 ID3G:   2
EXTT0=
EXTT1=
EXTT2=
EXTT3=
EXTT4=
EXTT5=
EXTT6=
EXTT7=
EXTT8=
EXTT9=
EXTT10=
EXTT11=
EXTT12=
EXTT13=
EXTT14=
EXTT15=
EXTT16=
EXTT17=
EXTT18=
EXTT19=
EXTT20=
EXTT21=
EXTT22=
EXTT23=
EXTT24=
EXTT25=
PLAYORDER=
